# xmcd
#
# Track frame offsets:
#	150
#	16871
#	34596
#	52798
#	70100
#	87734
#	107749
#	129257
#	148241
#	167049
#	191169
#
# Disc length: 2769 seconds
#
# Revision: 1
# Processed by: cddbd v1.5.2PL0 Copyright (c) Steve Scherf et al.
# Submitted via: audiograbber 1.83.01
#
DISCID=920acf0b
DTITLE=Nuel - Sweet talker
DYEAR=2009
DGENRE=Pop
TTITLE0=Sail away
TTITLE1=6-5
TTITLE2=Between you and me
TTITLE3=Follow me
TTITLE4=I swear
TTITLE5=Medicine
TTITLE6=Hold on
TTITLE7=Sun
TTITLE8=She's the one
TTITLE9=Sometimes
TTITLE10=Dead and alive
EXTD=
EXTT0=
EXTT1=
EXTT2=
EXTT3=
EXTT4=
EXTT5=
EXTT6=
EXTT7=
EXTT8=
EXTT9=
EXTT10=
PLAYORDER=
